<svg width="20" height="20" viewBox="0 0 20 20" fill="none" xmlns="http://www.w3.org/2000/svg">
<path d="M13.3336 7.49999V4.99999C13.3336 3.15904 11.8412 1.66666 10.0003 1.66666C8.15932 1.66666 6.66693 3.15904 6.66693 4.99999V7.49999M2.9936 8.62663L2.4936 13.96C2.35144 15.4764 2.28036 16.2346 2.53198 16.8202C2.75302 17.3347 3.14037 17.76 3.63195 18.0281C4.19154 18.3333 4.95307 18.3333 6.47614 18.3333H13.5244C15.0475 18.3333 15.809 18.3333 16.3686 18.0281C16.8602 17.76 17.2475 17.3347 17.4686 16.8202C17.7202 16.2346 17.6491 15.4764 17.5069 13.96L17.0069 8.62663C16.8869 7.34611 16.8269 6.70585 16.5389 6.22179C16.2853 5.79548 15.9105 5.45425 15.4624 5.24153C14.9536 4.99999 14.3105 4.99999 13.0244 4.99999L6.97614 4.99999C5.69001 4.99999 5.04694 4.99999 4.53812 5.24153C4.08999 5.45425 3.71527 5.79548 3.46165 6.22179C3.17368 6.70585 3.11365 7.34611 2.9936 8.62663Z" stroke="#C11574" stroke-width="1.66667" stroke-linecap="round" stroke-linejoin="round"/>
</svg>
